<?xml version="1.0" encoding="utf-8"?>
<!-- Generator: Adobe Illustrator 16.0.0, SVG Export Plug-In . SVG Version: 6.00 Build 0)  -->
<!DOCTYPE svg PUBLIC "-//W3C//DTD SVG 1.1//EN" "http://www.w3.org/Graphics/SVG/1.1/DTD/svg11.dtd">
<svg version="1.1" id="Capa_1" xmlns="http://www.w3.org/2000/svg" xmlns:xlink="http://www.w3.org/1999/xlink" x="0px" y="0px"
	 width="150.13px" height="128.449px" viewBox="0 0 150.13 128.449" enable-background="new 0 0 150.13 128.449"
	 xml:space="preserve">
<g opacity="0.6">
	<g>
		<path fill="#252157" d="M3.89,89.319h1.7l4.197,10.639l4.18-10.639h1.7v12.134h-1.155V90.968h-0.034l-4.147,10.485H9.242
			L5.079,90.968H5.045v10.485H3.89V89.319z"/>
		<path fill="#252157" d="M25.507,101.453h-0.984v-1.58h-0.034c-0.561,1.172-1.717,1.835-3.023,1.835
			c-2.21,0-3.078-1.292-3.078-3.332v-5.692h1.071v5.71c0.05,1.58,0.646,2.412,2.347,2.412c1.835,0,2.633-1.734,2.633-3.518v-4.604
			h1.069V101.453z"/>
		<path fill="#252157" d="M28.035,92.685h1.071v1.512h0.034c0.391-1.053,1.563-1.768,2.803-1.768c2.465,0,3.213,1.292,3.213,3.382
			v5.642h-1.071v-5.472c0-1.513-0.492-2.65-2.227-2.65c-1.698,0-2.718,1.291-2.752,3.007v5.115h-1.071V92.685z"/>
		<path fill="#252157" d="M37.689,89.319h1.071v1.717h-1.071V89.319z M37.689,92.685h1.071v8.769h-1.071V92.685z"/>
		<path fill="#252157" d="M47.492,95.437c-0.289-1.309-1.088-2.106-2.481-2.106c-2.058,0-3.077,1.869-3.077,3.737
			c0,1.869,1.02,3.738,3.077,3.738c1.325,0,2.414-1.036,2.55-2.498h1.07c-0.289,2.107-1.666,3.399-3.62,3.399
			c-2.687,0-4.146-2.125-4.146-4.64c0-2.515,1.459-4.639,4.146-4.639c1.869,0,3.313,1.002,3.552,3.008H47.492z"/>
		<path fill="#252157" d="M50.656,89.319h1.07v1.717h-1.07V89.319z M50.656,92.685h1.07v8.769h-1.07V92.685z"/>
		<path fill="#252157" d="M54.246,92.685h0.984v1.666h0.033c0.494-1.191,1.718-1.921,3.129-1.921c2.668,0,3.941,2.159,3.941,4.639
			c0,2.481-1.273,4.64-3.941,4.64c-1.31,0-2.584-0.663-3.044-1.921h-0.032v4.912h-1.07V92.685z M58.393,93.331
			c-2.363,0-3.076,1.749-3.076,3.737c0,1.819,0.799,3.738,3.076,3.738c2.038,0,2.872-1.919,2.872-3.738
			C61.265,95.252,60.431,93.331,58.393,93.331z"/>
		<path fill="#252157" d="M64.344,95.37c0.102-2.057,1.546-2.941,3.553-2.941c1.546,0,3.227,0.476,3.227,2.823v4.654
			c0,0.409,0.205,0.647,0.63,0.647c0.12,0,0.255-0.036,0.34-0.068v0.899c-0.237,0.052-0.407,0.069-0.696,0.069
			c-1.088,0-1.258-0.611-1.258-1.528h-0.033c-0.748,1.138-1.512,1.784-3.195,1.784c-1.615,0-2.94-0.799-2.94-2.565
			c0-2.465,2.397-2.55,4.708-2.822c0.883-0.103,1.375-0.221,1.375-1.189c0-1.444-1.037-1.8-2.294-1.8
			c-1.326,0-2.311,0.611-2.345,2.039H64.344z M70.053,96.66h-0.031c-0.138,0.255-0.615,0.342-0.902,0.393
			c-1.818,0.322-4.078,0.306-4.078,2.021c0,1.073,0.952,1.734,1.953,1.734c1.631,0,3.076-1.036,3.059-2.753V96.66z"/>
		<path fill="#252157" d="M73.832,89.319h1.069v12.134h-1.069V89.319z"/>
		<path fill="#252157" d="M77.428,89.319h1.071v1.717h-1.071V89.319z M77.428,92.685h1.071v8.769h-1.071V92.685z"/>
		<path fill="#252157" d="M88.752,101.453h-0.986v-1.666h-0.033c-0.459,1.14-1.852,1.921-3.127,1.921
			c-2.668,0-3.942-2.159-3.942-4.64c0-2.48,1.274-4.639,3.942-4.639c1.309,0,2.582,0.663,3.043,1.921h0.033v-5.031h1.07V101.453z
			 M84.605,100.807c2.277,0,3.076-1.919,3.076-3.738c0-1.816-0.799-3.737-3.076-3.737c-2.039,0-2.873,1.921-2.873,3.737
			C81.732,98.888,82.566,100.807,84.605,100.807z"/>
		<path fill="#252157" d="M91.215,95.37c0.102-2.057,1.547-2.941,3.551-2.941c1.549,0,3.229,0.476,3.229,2.823v4.654
			c0,0.409,0.205,0.647,0.628,0.647c0.12,0,0.256-0.036,0.342-0.068v0.899c-0.238,0.052-0.408,0.069-0.699,0.069
			c-1.086,0-1.256-0.611-1.256-1.528h-0.035c-0.746,1.138-1.512,1.784-3.193,1.784c-1.615,0-2.941-0.799-2.941-2.565
			c0-2.465,2.396-2.55,4.707-2.822c0.885-0.103,1.379-0.221,1.379-1.189c0-1.444-1.038-1.8-2.295-1.8
			c-1.326,0-2.311,0.611-2.347,2.039H91.215z M96.926,96.66h-0.035c-0.135,0.255-0.61,0.342-0.9,0.393
			c-1.818,0.322-4.078,0.306-4.078,2.021c0,1.073,0.951,1.734,1.954,1.734c1.63,0,3.075-1.036,3.06-2.753V96.66z"/>
		<path fill="#252157" d="M108.252,101.453h-0.984v-1.666h-0.033c-0.459,1.14-1.854,1.921-3.128,1.921
			c-2.667,0-3.941-2.159-3.941-4.64c0-2.48,1.274-4.639,3.941-4.639c1.31,0,2.583,0.663,3.042,1.921h0.035v-5.031h1.068V101.453z
			 M104.106,100.807c2.276,0,3.077-1.919,3.077-3.738c0-1.816-0.801-3.737-3.077-3.737c-2.038,0-2.87,1.921-2.87,3.737
			C101.236,98.888,102.068,100.807,104.106,100.807z"/>
		<path fill="#252157" d="M122.889,101.453h-0.984v-1.666h-0.033c-0.461,1.14-1.853,1.921-3.129,1.921
			c-2.667,0-3.941-2.159-3.941-4.64c0-2.48,1.274-4.639,3.941-4.639c1.311,0,2.586,0.663,3.042,1.921h0.034v-5.031h1.07V101.453z
			 M118.742,100.807c2.277,0,3.076-1.919,3.076-3.738c0-1.816-0.799-3.737-3.076-3.737c-2.039,0-2.87,1.921-2.87,3.737
			C115.872,98.888,116.703,100.807,118.742,100.807z"/>
		<path fill="#252157" d="M126.094,97.358c0.018,1.563,0.832,3.448,2.89,3.448c1.563,0,2.413-0.916,2.752-2.242h1.071
			c-0.461,1.989-1.616,3.144-3.823,3.144c-2.788,0-3.96-2.142-3.96-4.64c0-2.311,1.172-4.639,3.96-4.639
			c2.819,0,3.94,2.465,3.856,4.929H126.094z M131.77,96.457c-0.051-1.615-1.055-3.126-2.786-3.126c-1.751,0-2.721,1.528-2.89,3.126
			H131.77z"/>
		<path fill="#252157" d="M12.721,118.407c0,3.037-1.557,4.573-4.745,4.573c-3.586,0-4.743-2.067-4.743-5.084v-0.589h3.319v1.251
			c0,0.893,0.494,1.386,1.368,1.386c0.814,0,1.27-0.455,1.27-1.765v-9.033h3.531V118.407z"/>
		<path fill="#252157" d="M24.592,122.697h-3.131v-1.349h-0.038c-0.606,1.005-1.86,1.631-2.998,1.631
			c-2.827,0-3.645-1.631-3.645-4.212v-5.922h3.228v5.712c0,1.312,0.568,1.766,1.593,1.766c0.702,0,1.767-0.455,1.767-2.201v-5.277
			h3.225V122.697z"/>
		<path fill="#252157" d="M26.444,115.883c0.057-1.29,0.663-2.126,1.536-2.638c0.875-0.493,2.013-0.682,3.133-0.682
			c2.332,0,4.593,0.512,4.593,3.302v4.308c0,0.833,0,1.746,0.38,2.524H32.84c-0.115-0.304-0.152-0.609-0.19-0.931
			c-0.834,0.873-2.068,1.213-3.244,1.213c-1.879,0-3.359-0.948-3.359-2.979c0-3.208,3.491-2.961,5.731-3.416
			c0.549-0.114,0.854-0.304,0.854-0.91c0-0.741-0.893-1.026-1.556-1.026c-0.893,0-1.462,0.398-1.614,1.233H26.444z M30.619,120.988
			c1.538,0,2.049-0.873,1.975-2.902c-0.457,0.285-1.291,0.34-1.994,0.531c-0.721,0.172-1.328,0.474-1.328,1.253
			C29.271,120.666,29.897,120.988,30.619,120.988z"/>
		<path fill="#252157" d="M37.641,112.846h3.132v1.349h0.036c0.59-1.006,1.918-1.632,3.094-1.632c3.283,0,3.549,2.391,3.549,3.815
			v6.319h-3.226v-4.764c0-1.348,0.152-2.713-1.614-2.713c-1.213,0-1.744,1.025-1.744,2.105v5.373h-3.227V112.846z"/>
		<path fill="#252157" d="M49.262,115.883c0.057-1.29,0.666-2.126,1.537-2.638c0.873-0.493,2.012-0.682,3.132-0.682
			c2.333,0,4.593,0.512,4.593,3.302v4.308c0,0.833,0,1.746,0.38,2.524h-3.247c-0.111-0.304-0.151-0.609-0.189-0.931
			c-0.834,0.873-2.068,1.213-3.244,1.213c-1.879,0-3.359-0.948-3.359-2.979c0-3.208,3.492-2.961,5.732-3.416
			c0.551-0.114,0.853-0.304,0.853-0.91c0-0.741-0.892-1.026-1.556-1.026c-0.893,0-1.461,0.398-1.613,1.233H49.262z M53.438,120.988
			c1.537,0,2.049-0.873,1.973-2.902c-0.456,0.285-1.29,0.34-1.992,0.531c-0.722,0.172-1.328,0.474-1.328,1.253
			C52.09,120.666,52.715,120.988,53.438,120.988z"/>
		<path fill="#252157" d="M66.313,109.146h3.529v5.201l4.461-5.201h4.383l-5.009,5.333l5.636,8.218h-4.385l-3.643-5.694
			l-1.443,1.518v4.176h-3.529V109.146z"/>
		<path fill="#252157" d="M84.07,112.563c3.057,0,5.201,2.257,5.201,5.219c0,2.96-2.145,5.198-5.201,5.198
			c-3.054,0-5.181-2.238-5.181-5.198C78.89,114.82,81.017,112.563,84.07,112.563z M84.07,120.514c1.5,0,1.975-1.479,1.975-2.732
			c0-1.254-0.475-2.753-1.975-2.753c-1.498,0-1.953,1.499-1.953,2.753C82.117,119.034,82.572,120.514,84.07,120.514z"/>
		<path fill="#252157" d="M93.184,119.45c0,0.493,0.209,0.855,0.532,1.102c0.302,0.229,0.74,0.342,1.194,0.342
			c0.628,0,1.519-0.266,1.519-1.044c0-0.759-1.005-0.911-1.573-1.045c-2.031-0.51-4.574-0.568-4.574-3.225
			c0-2.372,2.561-3.017,4.496-3.017c2.164,0,4.422,0.626,4.537,3.188h-2.98c0-0.418-0.151-0.683-0.416-0.854
			c-0.268-0.17-0.628-0.247-1.025-0.247c-0.532,0-1.385,0.058-1.385,0.74c0,0.929,2.164,1.102,3.645,1.424
			c1.99,0.398,2.504,1.841,2.504,2.656c0,2.638-2.504,3.51-4.727,3.51c-2.334,0-4.725-0.777-4.82-3.53H93.184z"/>
		<path fill="#252157" d="M101.147,109.146h3.226v13.551h-3.226V109.146z"/>
		<path fill="#252157" d="M106.269,115.883c0.057-1.29,0.663-2.126,1.537-2.638c0.874-0.493,2.012-0.682,3.132-0.682
			c2.335,0,4.593,0.512,4.593,3.302v4.308c0,0.833,0,1.746,0.38,2.524h-3.246c-0.113-0.304-0.15-0.609-0.188-0.931
			c-0.836,0.873-2.07,1.213-3.245,1.213c-1.879,0-3.359-0.948-3.359-2.979c0-3.208,3.492-2.961,5.73-3.416
			c0.549-0.114,0.854-0.304,0.854-0.91c0-0.741-0.893-1.026-1.556-1.026c-0.892,0-1.462,0.398-1.614,1.233H106.269z
			 M110.445,120.988c1.536,0,2.047-0.873,1.973-2.902c-0.457,0.285-1.291,0.34-1.994,0.531c-0.721,0.172-1.328,0.474-1.328,1.253
			C109.096,120.666,109.724,120.988,110.445,120.988z"/>
		<path fill="#252157" d="M122.526,123.569c-0.778,2.165-1.935,2.43-4.118,2.43h-1.518v-2.621h1.119c0.74,0,1.291-0.416,1.291-1.099
			c0-0.533-0.625-2.05-0.817-2.582l-2.542-6.852h3.416l1.859,6.417h0.037l1.86-6.417h3.303L122.526,123.569z"/>
	</g>
	<g>
		<g>
			<path fill="#252157" d="M18.209,77.042c-0.316,0.151,0.125-0.044,0.232-0.063c0.395-0.069,0.787-0.115,1.191-0.11
				c1.656,0.021,3.272,0.63,4.807,1.372c0.57,0.274,1.941-0.84,1.133-1.231c-2.346-1.133-5.408-2.137-7.814-0.972
				C16.787,76.507,17.241,77.508,18.209,77.042L18.209,77.042z"/>
		</g>
	</g>
	<g>
		<g>
			<path fill="#252157" d="M21.813,64.139c-0.355,5.277,4.295,9.437,8.555,11.559c0.992,0.495,2.797-0.535,1.328-1.268
				c-3.718-1.853-7.684-5.606-7.375-10.171C24.389,63.219,21.883,63.085,21.813,64.139L21.813,64.139z"/>
		</g>
	</g>
	<path fill-rule="evenodd" clip-rule="evenodd" fill="#252157" d="M19.507,42.321c4.12,3.355,17.14,18.54,7.503,25.649
		c1.161-4.28-3.96-8.768-4.928-9.862c-1.898,3.259-3.676,7.857-1.613,10.765C14.309,66.483,10.209,58.978,19.507,42.321z"/>
	<path fill-rule="evenodd" clip-rule="evenodd" fill="#252157" d="M2.863,78.826c2.266-2.817,12.545-11.737,17.42-5.211
		c-2.916-0.771-5.948,2.73-6.688,3.394c2.224,1.279,5.359,2.469,7.33,1.053C19.322,82.263,14.235,85.084,2.863,78.826z"/>
	<path fill="#252157" d="M147.243,77.168c-0.103-4.066-0.552-8.105-1.282-12.103c-6.094-31.722-31.67-56.771-63.699-61.717
		C60.045-0.086,37.483,6.5,20.354,20.205c0,0,1.214,2.929,1.529,2.663C35.008,11.773,51.945,5.371,69.854,5.817
		c30.154,0.751,57.436,20.565,67.871,48.769c-5.475-4.316-11.809-9.131-18.379-10.744c-5.217-1.279-10.049,2.065-14.289,4.78
		c-4.727,3.026-9.092,6.529-13.617,9.82c-1.021-0.978-2.037-1.95-3.049-2.902c-4.968-4.665-12.957-14.587-20.673-13.063
		c-4.629,0.914-8.417,4.734-11.507,8.107c-0.928,1.013-1.83,2.052-2.715,3.106c-0.751-7.687-1.585-15.473,1.26-15.921
		c4.186-0.659,9.768,0.24,11.57-0.356c1.873-0.619,2.926-5.167,4.205-7.527c0.508-0.932,1.031-1.245,1.621-2.347
		c1.018-1.906,2.063-1.27,2.578-1.612c0.519-0.343,2.846-1.857-0.303-3.879c-3.145-2.023-2.431,1.818-3.734,2.376
		c-1.302,0.557-1.822,2.494-3.219,3.432c-1.091,0.737-2.912,2.299-5.716,4.567c-2.755-3.147-4.259-1.787-5.42-1.82
		c-1.161-0.032-1.556-1.019-3.205-1.162c-1.271-0.108-4.812,1.819-5.288,0.143c-0.75-2.62,0.616-4.902,0.607-6.946
		c-0.006-1.159-0.064-5.176-4.729-5.176s-4.121,4.396-4.121,5.176c0.07,1.406,1.758,7.587-0.646,7.36
		c-6.115-0.611-5.518-0.154-7.682,1.094c-2.384,1.373-4.083-0.868-6.62,1.825c-0.984,1.069-1.574-1.496-3.876-3.678
		c-2.03-2.322-2.788-3.779-3.943-6.791c-1.462-4.16-4.956-0.305-4.892,0.804c0.071,2.466,2.292,1.363,3.376,2.858
		c1.345,1.861,1.302,6.02,1.871,7.442c0.946,2.374,2.604,4.737,3.448,4.739c3.031,0.011,9.33-0.531,12.738-0.541
		c3.943-0.009,8.273,9.987,6.133,18.07c-2.228,8.418-1.061,14.898-0.755,19.695c0.306,4.797-1.276,6.592-1.104,6.91
		c0.175,0.321,13.022,0.445,13.364-0.078c0.218-0.49,0.643-2.182,1.11-4.448c0.656-0.237,1.338-0.456,2.078-0.604
		c4.441-0.9,8.945-1.449,13.475-1.571c8.477-0.227,16.82,1.231,25.072,3.118c8.09,1.847,16.104,4.161,24.458,3.76
		c0.013,0,0.079-0.006,0.094-0.006c10.454-0.561,17.774-4.058,24.864-6.752c1.012,17.944-4.429,35.723-15.131,49.801h4.253
		C141.717,111.921,147.692,94.889,147.243,77.168z M92.048,75.48c-6.622-1.399-13.288-2.391-20.055-2.423
		c-3.887-0.018-7.759,0.248-11.606,0.789c-1.929,0.271-3.849,0.602-5.76,0.99c-0.52,0.105-1.232,0.341-2.02,0.608
		c0.793-4.28,1.551-9.562,1.511-12.996c-0.017-1.427-0.112-3.007-0.246-4.66c1.544-1.85,2.823-3.281,3.364-3.92
		c2.344-2.775,5.306-6.959,8.713-8.396c2.199-0.927,3.634-0.008,5.558,1.2c4.913,3.079,9.158,7.466,13.38,11.438
		c7.013,6.596,14.111,13.906,22.229,19.312c0.862,0.65,1.802,1.343,2.776,2.006C103.889,78.519,97.958,76.73,92.048,75.48z
		 M119.057,79.678c-0.01-0.005-0.016-0.011-0.024-0.014c-1.599-0.688-3.148-1.477-4.669-2.337c-0.499-0.346-0.934-0.648-1.234-0.835
		c-2.592-1.619-5.041-3.452-7.43-5.37c-4.238-3.406-8.248-7.101-12.226-10.821c3.503-2.539,6.872-5.281,10.439-7.732
		c4.477-3.076,9.309-7.442,14.826-5.192c6.161,2.511,11.796,6.861,17.028,10.98c0.902,0.711,2.838,2.038,4.129,3.097
		c0.449,1.699,0.844,3.413,1.176,5.139c0.436,2.385,0.746,4.776,0.947,7.167C134.818,76.438,126.962,79.194,119.057,79.678z"/>
</g>
</svg>
